<?xml version="1.0" encoding="UTF-8" standalone="no"?>
<svg
   xmlns:dc="http://purl.org/dc/elements/1.1/"
   xmlns:cc="http://creativecommons.org/ns#"
   xmlns:rdf="http://www.w3.org/1999/02/22-rdf-syntax-ns#"
   xmlns:svg="http://www.w3.org/2000/svg"
   xmlns="http://www.w3.org/2000/svg"
   xmlns:sodipodi="http://sodipodi.sourceforge.net/DTD/sodipodi-0.dtd"
   xmlns:inkscape="http://www.inkscape.org/namespaces/inkscape"
   version="1.1"
   id="svg60"
   sodipodi:docname="icon.svg"
   inkscape:version="0.92.5 (2060ec1f9f, 2020-04-08)"
   width="20"
   height="20">
  <metadata
     id="metadata66">
    <rdf:RDF>
      <cc:Work
         rdf:about="">
        <dc:format>image/svg+xml</dc:format>
        <dc:type
           rdf:resource="http://purl.org/dc/dcmitype/StillImage" />
        <dc:title></dc:title>
      </cc:Work>
    </rdf:RDF>
  </metadata>
  <defs
     id="defs64" />
  <sodipodi:namedview
     pagecolor="#ffffff"
     bordercolor="#666666"
     borderopacity="1"
     objecttolerance="10"
     gridtolerance="10"
     guidetolerance="10"
     inkscape:pageopacity="0"
     inkscape:pageshadow="2"
     inkscape:window-width="1416"
     inkscape:window-height="1043"
     id="namedview62"
     showgrid="false"
     inkscape:zoom="6.1164737"
     inkscape:cx="-17.201832"
     inkscape:cy="22.953543"
     inkscape:window-x="0"
     inkscape:window-y="0"
     inkscape:window-maximized="0"
     inkscape:current-layer="svg60"
     fit-margin-top="0"
     fit-margin-left="0"
     fit-margin-right="0"
     fit-margin-bottom="0" />
  <path
     d="M 15,0 H 5 C 3.9,0 3,0.9 3,2 v 2 c 0,1.1 0.9,2 2,2 h 10 c 1.1,0 2,-0.9 2,-2 V 2 C 17,0.9 16.1,0 15,0 Z m 0,4 H 5 V 2 h 10 z m 3,16 H 2 C 0.9,20 0,19.1 0,18 v -1 h 20 v 1 c 0,1.1 -0.9,2 -2,2 z M 16.53,8.19 A 2.008,2.008 0 0 0 14.7,7 H 5.3 C 4.51,7 3.79,7.47 3.47,8.19 L 0,16 H 20 Z M 7.5,14 h -1 C 6.22,14 6,13.78 6,13.5 6,13.22 6.22,13 6.5,13 h 1 C 7.78,13 8,13.22 8,13.5 8,13.78 7.78,14 7.5,14 Z m 0,-2 h -1 C 6.22,12 6,11.78 6,11.5 6,11.22 6.22,11 6.5,11 h 1 C 7.78,11 8,11.22 8,11.5 8,11.78 7.78,12 7.5,12 Z m 0,-2 h -1 C 6.22,10 6,9.78 6,9.5 6,9.22 6.22,9 6.5,9 h 1 C 7.78,9 8,9.22 8,9.5 8,9.78 7.78,10 7.5,10 Z m 3,4 h -1 C 9.22,14 9,13.78 9,13.5 9,13.22 9.22,13 9.5,13 h 1 c 0.28,0 0.5,0.22 0.5,0.5 0,0.28 -0.22,0.5 -0.5,0.5 z m 0,-2 h -1 C 9.22,12 9,11.78 9,11.5 9,11.22 9.22,11 9.5,11 h 1 c 0.28,0 0.5,0.22 0.5,0.5 0,0.28 -0.22,0.5 -0.5,0.5 z m 0,-2 h -1 C 9.22,10 9,9.78 9,9.5 9,9.22 9.22,9 9.5,9 h 1 C 10.78,9 11,9.22 11,9.5 11,9.78 10.78,10 10.5,10 Z m 3,4 h -1 C 12.22,14 12,13.78 12,13.5 12,13.22 12.22,13 12.5,13 h 1 c 0.28,0 0.5,0.22 0.5,0.5 0,0.28 -0.22,0.5 -0.5,0.5 z m 0,-2 h -1 C 12.22,12 12,11.78 12,11.5 12,11.22 12.22,11 12.5,11 h 1 c 0.28,0 0.5,0.22 0.5,0.5 0,0.28 -0.22,0.5 -0.5,0.5 z m 0,-2 h -1 C 12.22,10 12,9.78 12,9.5 12,9.22 12.22,9 12.5,9 h 1 C 13.78,9 14,9.22 14,9.5 14,9.78 13.78,10 13.5,10 Z"
     id="path58"
     inkscape:connector-curvature="0"
     style="fill:#2a2aff" />
</svg>
